<svg width="299" height="64" viewBox="0 0 299 64" fill="none" xmlns="http://www.w3.org/2000/svg">
<path d="M32.7441 43.5753C32.9089 43.0567 33.2633 42.6235 33.8073 42.2755C34.3494 41.8811 34.9224 41.6715 35.5262 41.6467C35.7119 41.6391 35.9925 41.6741 36.3679 41.7518C37.73 42.0681 38.4359 42.8301 38.4854 44.0376C38.5292 45.1059 38.1095 46.2164 37.2263 47.3691C37.3345 47.7369 37.3942 48.0601 37.4057 48.3388C37.4304 48.9426 37.3159 49.5521 37.062 50.1673C36.8545 50.7806 36.529 51.3522 36.0855 51.8822C35.9767 52.631 35.7943 53.2898 35.5385 53.8586C35.3272 54.379 34.9804 54.998 34.4981 55.7156C33.9713 56.4816 33.4358 57.0386 32.8918 57.3866C32.3924 57.6862 31.6839 57.9944 30.7664 58.3111C30.5609 58.9709 30.2141 59.5899 29.726 60.1682C29.2361 60.7001 28.6196 60.9812 27.8764 61.0117C27.5049 61.0269 27.1072 60.9735 26.6835 60.8513C26.3736 61.2362 25.9216 61.5571 25.3273 61.8141C24.7776 62.0227 24.2008 62.1394 23.5971 62.1642C22.8075 62.1966 22.1738 62.0597 21.696 61.7537C21.1482 62.0088 20.4331 62.1544 19.5506 62.1906C18.3895 62.2382 17.2672 62.0981 16.1837 61.7704C15.1003 61.4426 14.2404 60.8964 13.6043 60.1316C12.4934 60.2702 11.554 60.0528 10.7861 59.4795C10.1207 59.1346 9.68552 58.7338 9.48069 58.2769C7.72794 57.5114 6.82907 56.013 6.78408 53.7817C5.92522 53.2587 5.27249 52.6574 4.82592 51.9779C4.37743 51.2519 4.01422 50.3363 3.73628 49.2312C3.34948 48.8748 3.1437 48.3948 3.11894 47.791C3.10751 47.5123 3.12121 47.2792 3.16003 47.0915C2.72488 46.6906 2.49302 46.1419 2.46445 45.4452C2.45112 45.1201 2.50745 44.7921 2.63345 44.4613C1.95465 43.7913 1.58858 42.806 1.53524 41.5056C1.48762 40.3444 1.70592 39.4283 2.19015 38.7571C1.84599 38.306 1.66248 37.8018 1.63962 37.2444C1.62247 36.8264 1.72049 36.3804 1.93367 35.9064C1.69001 35.6373 1.55104 35.0847 1.51675 34.2487C1.47866 33.3198 1.5799 32.3852 1.82047 31.4449C2.05914 30.4581 2.38081 29.7936 2.78548 29.4513C2.63471 29.1784 2.54885 28.7864 2.5279 28.2755C2.49742 27.5324 2.58496 26.831 2.79052 26.1712C3.04252 25.5096 3.39979 25.146 3.86234 25.0805C3.82234 24.1052 4.18569 23.3226 4.9524 22.7329C4.87928 22.0846 5.08198 21.3552 5.56049 20.5446C6.08545 19.7322 6.69055 19.1724 7.3758 18.8651C7.47323 17.8376 7.85599 16.9613 8.52409 16.236C9.1922 15.5108 9.94235 15.0846 10.7745 14.9574C10.9896 14.5298 11.3933 14.1644 11.9857 13.8609C12.6226 13.5092 13.2429 13.3209 13.8467 13.2961C14.3112 13.2771 14.7098 13.3538 15.0425 13.5262C15.7125 12.8474 16.4887 12.4899 17.3712 12.4537C18.1143 12.4232 18.6096 12.589 18.8571 12.9511C19.2248 12.8429 19.548 12.7831 19.8267 12.7717C20.6627 12.7374 21.3021 13.0136 21.7449 13.6003C21.9249 13.4533 22.2007 13.3722 22.5723 13.357C23.2225 13.3303 23.95 13.4865 24.7549 13.8257C25.6042 14.1166 26.1052 14.4217 26.2579 14.7411C27.2408 14.8868 28.1433 15.3383 28.9652 16.0955C29.7853 16.8062 30.1418 17.5593 30.0349 18.3545C30.6984 18.653 31.1819 19.0984 31.4854 19.6907C31.7869 20.2366 31.9017 20.767 31.8298 21.2817C32.2611 21.5896 32.5569 21.9962 32.7172 22.5014C32.8756 22.9601 32.9799 23.235 33.0302 23.326C33.9914 24.0774 34.4968 25.057 34.5464 26.2645C34.5559 26.4967 34.5218 26.8005 34.4442 27.1759C34.4982 27.3598 34.531 27.5911 34.5424 27.8697C34.5748 28.6593 34.3005 29.3451 33.7196 29.9272C33.1832 30.461 32.5435 30.7431 31.8003 30.7736C31.0572 30.8041 30.3956 30.5521 29.8154 30.0176C28.4578 28.6776 27.6807 27.3137 27.4842 25.9261C26.9193 25.7632 26.4638 25.4329 26.1177 24.9354C25.7697 24.3914 25.6056 23.7933 25.6254 23.1412C25.196 22.8796 24.8566 22.5446 24.6072 22.1362C24.4024 21.6793 24.3137 21.2177 24.341 20.7514C23.505 20.7857 22.8443 20.5569 22.3589 20.065C22.2215 20.1172 21.967 20.1509 21.5954 20.1661C21.0845 20.1871 20.5244 20.1403 19.9149 20.0257C19.3034 19.8647 18.8304 19.6747 18.4958 19.4558C18.3119 19.5099 18.0342 19.5446 17.6626 19.5598C17.1517 19.5808 16.8015 19.5486 16.6119 19.4633C16.0234 19.8596 15.4504 20.0692 14.8931 20.0921C14.7073 20.0997 14.3803 20.0666 13.912 19.9928C13.4183 20.4317 12.9401 20.684 12.4776 20.7494C12.4152 21.4964 12.2338 22.1784 11.9334 22.7955C11.6795 23.4107 11.3222 23.7743 10.8616 23.8862C10.9774 24.4398 10.9073 25.0009 10.6515 25.5697C10.3938 26.092 10.0162 26.5262 9.5186 26.8723C9.48739 27.2457 9.38652 27.6221 9.21598 28.0012C9.04353 28.334 8.82178 28.599 8.55073 28.7962C8.6067 29.0265 8.66458 29.3032 8.72436 29.6265C8.78223 29.9032 8.81974 30.2506 8.83688 30.6686C8.87688 31.644 8.49031 32.4274 7.67716 33.0191C7.70192 33.6229 7.60581 34.1153 7.38882 34.4964C7.6401 34.9513 7.77526 35.411 7.79431 35.8754C7.81335 36.3399 7.73761 36.7617 7.56707 37.1409C7.86479 37.5939 8.02222 38.0294 8.03936 38.4474C8.0565 38.8654 7.96039 39.3579 7.75103 39.9247C7.54356 40.538 7.42709 41.1011 7.4016 41.6139C7.82913 41.829 8.16757 42.1407 8.41694 42.5492C8.66631 42.9577 8.80052 43.3942 8.81957 43.8586C8.84052 44.3695 8.72024 44.8397 8.45871 45.2691C8.83789 45.4397 9.12989 45.7533 9.33472 46.2102C9.53955 46.667 9.65244 47.1509 9.67339 47.6618C9.69435 48.1727 9.6186 48.5945 9.44616 48.9272C10.4908 49.4426 11.2113 49.9946 11.6076 50.5832C12.0485 51.1234 12.3875 52.0167 12.6247 53.2631C12.9556 53.3891 13.3366 53.606 13.768 53.914C14.2458 54.2201 14.5591 54.4864 14.7079 54.7129C15.4956 54.6341 16.316 54.7865 17.1692 55.1702C18.0669 55.5056 18.6916 55.9917 19.0434 56.6286C19.3125 56.385 19.7461 56.1811 20.3442 56.017C20.9868 55.8045 21.61 55.6859 22.2138 55.6612C22.864 55.6345 23.3091 55.7093 23.5489 55.8856C24.1667 55.0693 24.9401 54.6422 25.869 54.6041C26.1477 54.5926 26.3576 54.6073 26.4989 54.648C27.2172 54.0137 27.7807 53.5719 28.1891 53.3226C28.5957 53.0267 29.0748 52.7977 29.6264 52.6356C29.6443 51.937 29.8954 51.2521 30.3796 50.5809C30.4108 50.2074 30.532 49.7605 30.7433 49.2401C30.9527 48.6732 31.1678 48.2457 31.3886 47.9575C31.3364 47.8201 31.3036 47.5888 31.2903 47.2637C31.2656 46.6599 31.4014 46.003 31.698 45.293C31.9926 44.5365 32.3413 43.964 32.7441 43.5753Z" fill="#C62E2A"/>
<path d="M76.4292 51.7628C76.8956 51.7902 77.3231 52.0053 77.7118 52.408C78.1005 52.8108 78.3983 53.2638 78.605 53.7671C78.8582 54.2685 78.9431 54.6372 78.8597 54.8732C79.4399 55.4077 79.7471 56.0929 79.7814 56.9289C79.81 57.6256 79.6035 58.2621 79.1619 58.8385C78.7649 59.3666 78.2199 59.6913 77.527 59.8128C76.6929 59.8935 75.8194 59.5804 74.9065 58.8735C73.9935 58.1666 73.4735 57.397 73.3463 56.5648C72.7756 56.2625 72.1423 55.5674 71.4464 54.4794C70.7969 53.3895 70.4578 52.4962 70.4293 51.7995C69.8548 51.4044 69.2921 50.7296 68.7412 49.7752C68.1884 48.7744 67.9935 47.9915 68.1564 47.4265C67.4852 46.9423 66.9476 46.313 66.5437 45.5387C66.1843 44.716 65.9874 43.8867 65.9532 43.0507C65.2527 42.9863 64.6531 42.5457 64.1543 41.7287C63.702 40.9099 63.4597 40.1057 63.4273 39.3161C62.9998 39.101 62.6372 38.767 62.3394 38.3139C62.0417 37.8609 61.8833 37.4022 61.8643 36.9377C61.8529 36.6591 61.9343 36.3766 62.1087 36.0903C61.6556 36.388 61.1737 36.5473 60.6628 36.5683C60.1519 36.5893 59.5898 36.496 58.9765 36.2885C58.3339 36.501 57.641 36.6225 56.8979 36.6529C56.2477 36.6796 55.8017 36.5816 55.5599 36.3589C54.8633 36.3875 54.3206 36.2004 53.9319 35.7976C53.5896 35.3929 53.4051 34.8655 53.3785 34.2152C53.3537 33.6115 53.4702 33.0484 53.7279 32.5261C54.0321 32.0018 54.3709 31.7553 54.7443 31.7865C54.8334 31.6898 55.0618 31.5874 55.4296 31.4793C55.7973 31.3712 56.1902 31.3085 56.6082 31.2914C57.3513 31.2609 57.8893 31.3319 58.222 31.5043C58.9594 31.3345 59.63 31.2372 60.2338 31.2125C60.884 31.1858 61.2826 31.2625 61.4296 31.4426C61.9233 31.0036 62.4256 30.7737 62.9365 30.7527C63.3081 30.7375 63.6119 30.7715 63.8479 30.8549C64.1114 30.4719 64.6312 30.1017 65.4074 29.7442C66.2282 29.3383 66.8969 29.1946 67.4135 29.313C67.5821 28.8873 67.8968 28.6186 68.3574 28.5066C68.8161 28.3482 69.2564 28.3069 69.6782 28.3827C69.6611 27.9647 69.7833 27.5409 70.0448 27.1115C70.3063 26.6821 70.6219 26.4365 70.9916 26.3748C70.7791 25.7322 70.6615 25.1323 70.6386 24.5749C70.6119 23.9247 70.6839 23.41 70.8544 23.0308C70.5662 22.81 70.3448 22.5167 70.1903 22.1508C70.0802 21.7366 70.0631 21.3186 70.1388 20.8968C69.5141 20.4107 69.0993 19.9392 68.8945 19.4824C68.3352 19.4588 67.8361 19.2001 67.3972 18.7064C66.7972 18.824 66.3067 18.7744 65.9256 18.5574C65.5445 18.3404 65.1847 18.076 64.8463 17.7642C64.5078 17.4524 64.2419 17.2075 64.0485 17.0293C63.3264 17.5707 62.4776 17.8614 61.5023 17.9014C60.4805 17.9433 59.6785 17.6738 59.0964 17.0928C58.7401 17.4796 58.1207 17.6911 57.2383 17.7273C56.4022 17.7616 55.7212 17.6035 55.195 17.2529C54.8387 17.6396 54.2658 17.8492 53.4762 17.8816C52.6866 17.914 52.0539 17.8004 51.578 17.5408C51.8388 18.2279 51.9883 19.0359 52.0264 19.9648C52.0588 20.7544 51.9703 21.4326 51.7609 21.9995C52.1668 22.8203 52.3878 23.6719 52.424 24.5543C52.4602 25.4368 52.301 26.0946 51.9466 26.5279C52.2482 27.0738 52.4113 27.6486 52.4361 28.2524C52.4627 28.9026 52.2989 29.4444 51.9444 29.8776C52.426 30.2766 52.6878 30.987 52.7297 32.0087C52.7659 32.8912 52.6764 33.5462 52.4614 33.9737C52.7069 34.2893 52.9146 34.8158 53.0844 35.5532C53.2542 36.2906 53.3544 37.0309 53.3849 37.774C53.4115 38.4242 53.3628 38.938 53.2387 39.3153C53.3392 39.4972 53.4464 39.8417 53.5602 40.3488C53.6722 40.8095 53.7386 41.2952 53.7596 41.8061C53.8015 42.8279 53.6907 43.5303 53.4273 43.9133C53.926 44.7303 54.1925 45.5568 54.2268 46.3928C54.2535 47.043 54.0934 47.6776 53.7466 48.2966C54.344 49.2491 54.6703 50.3988 54.7255 51.7457C54.7731 52.9069 54.5752 53.7524 54.1317 54.2823C54.493 55.1515 54.6937 56.0737 54.7337 57.049C54.7794 58.1637 54.5388 59.104 54.0119 59.87C53.4832 60.5895 52.5918 60.975 51.3378 61.0265C50.5947 61.0569 49.9747 60.6869 49.4778 59.9164C49.0275 59.144 48.7813 58.2469 48.7394 57.2251C48.7032 56.3426 48.7907 55.6412 49.002 55.1208C48.5943 54.2536 48.3685 53.2858 48.3247 52.2176C48.2866 51.2887 48.3954 50.5399 48.6512 49.9711C48.2264 48.6859 47.9939 47.5556 47.9539 46.5803C47.9139 45.6049 48.0692 44.8542 48.4198 44.328C48.0406 44.1575 47.7264 43.868 47.477 43.4595C47.2722 43.0027 47.1593 42.5188 47.1383 42.0079C47.1002 41.079 47.3261 40.3486 47.8161 39.8168C47.6246 39.6851 47.4525 39.4595 47.2998 39.1401C47.1917 38.7724 47.13 38.4027 47.1148 38.0312C47.0767 37.1023 47.2192 36.6079 47.5425 36.5481C47.3974 36.4145 47.267 36.0709 47.1513 35.5174C47.0355 34.9639 46.9653 34.3852 46.9405 33.7814C46.9062 32.9454 46.9492 32.2923 47.0695 31.8222C46.6286 31.282 46.3891 30.5474 46.351 29.6185C46.3206 28.8754 46.4351 28.2659 46.6948 27.79C46.3989 27.3835 46.2368 26.8318 46.2082 26.1352C46.1796 25.4385 46.3629 24.8029 46.758 24.2284C46.447 23.4503 46.28 22.7825 46.2572 22.2252C46.2305 21.575 46.4176 21.0323 46.8185 20.5971C46.5284 20.3299 46.3506 19.965 46.2851 19.5025C46.2177 18.9935 46.1706 18.4139 46.144 17.7636C45.4416 17.6529 44.8941 17.3497 44.5016 16.854C44.1091 16.3583 43.8995 15.7854 43.8729 15.1352C43.8405 14.3456 44.0683 13.6617 44.5563 13.0834C45.0889 12.4567 45.7974 12.1485 46.6817 12.1588C46.6258 11.9285 46.8726 11.709 47.4224 11.5004C48.0185 11.2898 48.6417 11.1712 49.292 11.1445C50.3137 11.1026 50.9977 11.3305 51.3437 11.828C51.6186 11.7237 51.9883 11.662 52.4527 11.643C53.1029 11.6163 53.548 11.6911 53.7878 11.8674C54.3318 11.5194 55.0218 11.3283 55.8578 11.294C56.8332 11.254 57.5384 11.4344 57.9736 11.8353C58.8911 11.5185 59.6517 11.3477 60.2555 11.323C61.1379 11.2868 61.8209 11.4914 62.3044 11.9368C62.9451 11.6779 63.7531 11.5284 64.7285 11.4884C65.4716 11.458 66.1266 11.5474 66.6934 11.7568C67.2584 11.9197 67.6423 12.2063 67.8453 12.6167C67.9827 12.5646 68.1908 12.5328 68.4694 12.5213C69.0732 12.4966 69.6168 12.7069 70.1003 13.1523C70.6284 13.5494 70.9986 14.0692 71.2111 14.7118C72.0992 14.8149 72.7453 15.2537 73.1492 16.028C73.9891 16.0866 74.5849 16.4343 74.9366 17.0712C75.333 17.6598 75.5483 18.3721 75.5826 19.2081C76.1354 20.2089 76.4299 21.1506 76.4661 22.033C76.4946 22.7297 76.3559 23.3169 76.0498 23.7947C76.2585 24.3444 76.3742 24.898 76.3971 25.4553C76.4313 26.2913 76.1832 27.0459 75.6525 27.7189C75.683 28.4621 75.5044 29.2138 75.1169 29.974C74.7275 30.6878 74.1882 31.1519 73.4992 31.3663C73.3382 31.9777 73.033 32.4787 72.5838 32.8693C72.1346 33.2599 71.5849 33.4685 70.9347 33.4952C70.7177 33.8763 70.404 34.1683 69.9936 34.3712C69.5813 34.5277 69.0984 34.6638 68.5449 34.7796C68.0378 34.8934 67.6236 35.0034 67.3023 35.1097C67.5829 35.1447 67.8256 35.3906 68.0304 35.8474C68.2333 36.2578 68.268 36.5355 68.1344 36.6806C68.5097 36.7582 68.8984 37.161 69.3005 37.8889C69.7006 38.5703 69.8415 39.1693 69.7231 39.6859C70.4274 39.8432 70.9796 40.2625 71.3797 40.9439C71.8263 41.6234 72.0687 42.4277 72.1067 43.3566C72.6869 43.891 73.18 44.5687 73.5858 45.3894C73.9917 46.2102 74.1866 46.9931 74.1706 47.7381C74.929 48.0792 75.5092 48.6137 75.9112 49.3416C76.3133 50.0695 76.4859 50.8765 76.4292 51.7628Z" fill="#64A7DE"/>
<path d="M108.069 9.71091C108.52 9.36675 109.117 9.17943 109.86 9.14895C110.928 9.10514 112.011 9.40967 113.108 10.0625C113.619 10.0416 114.045 10.2334 114.387 10.6381C114.73 11.0428 114.913 11.547 114.938 12.1508C114.97 12.9404 114.767 13.6466 114.327 14.2694C113.887 14.8922 113.249 15.2208 112.413 15.2551C111.81 15.2798 111.152 15.1207 110.44 14.7777C110.084 15.1645 109.603 15.3703 109 15.3951C108.349 15.4217 107.666 15.2171 106.951 14.7813C106.496 15.0325 105.804 15.1772 104.875 15.2153C103.528 15.2706 102.475 15.1044 101.714 14.7169C101.031 15.0706 100.318 15.2627 99.5746 15.2931C98.9708 15.3179 98.3864 15.2488 97.8215 15.0859C97.2272 15.3429 96.6514 15.4828 96.0941 15.5057C95.3509 15.5361 94.5993 15.3576 93.839 14.9701C93.022 15.4688 92.2903 15.778 91.6439 15.8975C92.0014 16.6738 92.1992 17.5263 92.2373 18.4552C92.2849 19.6164 92.0676 20.5557 91.5853 21.2734C92.1788 22.133 92.4975 23.0969 92.5413 24.1651C92.5756 25.0011 92.4008 25.8457 92.0171 26.6989C92.4542 27.1462 92.687 27.7181 92.7156 28.4148C92.7346 28.8793 92.5949 29.4433 92.2965 30.1068C92.705 29.8575 93.2111 29.7204 93.8149 29.6956C94.2793 29.6766 94.6063 29.7097 94.7959 29.795C95.2916 29.4025 95.8413 29.1938 96.4451 29.1691C97.0489 29.1443 97.6631 29.375 98.2879 29.8611C98.8395 29.6989 99.3011 29.6102 99.6726 29.595C99.9049 29.5854 100.302 29.6157 100.863 29.6857C101.416 29.57 101.809 29.5073 102.041 29.4978C102.831 29.4654 103.419 29.6274 103.806 29.9837C104.168 29.7363 104.581 29.603 105.046 29.584C105.603 29.5611 105.956 29.6629 106.105 29.8894C106.517 29.733 106.839 29.65 107.072 29.6404C107.397 29.6271 107.842 29.7019 108.407 29.8648C108.997 29.5149 109.571 29.3286 110.128 29.3057C110.918 29.2733 111.604 29.5476 112.186 30.1285C112.766 30.663 113.071 31.2786 113.099 31.9753C113.124 32.579 112.936 33.0985 112.535 33.5337C112.134 33.9688 111.493 34.2277 110.613 34.3103C110.218 34.8848 109.532 35.1921 108.557 35.2321C107.675 35.2683 106.876 35.0684 106.16 34.6325C105.714 35.116 105.051 35.3759 104.168 35.4121C103.379 35.4445 102.721 35.2853 102.195 34.9347C101.834 35.2286 101.445 35.3842 101.027 35.4013C100.749 35.4127 100.513 35.3294 100.319 35.1512C99.8274 35.6366 99.1402 35.8974 98.2578 35.9336C97.6076 35.9603 96.9981 35.8457 96.4293 35.5899C95.9744 35.8412 95.5843 35.9735 95.2592 35.9868C94.7948 36.0059 94.3237 35.8624 93.8459 35.5563C93.5284 35.7554 93.2777 35.882 93.0938 35.9361C92.9099 35.9901 92.6545 36.0006 92.3275 35.9675C92.7798 36.7863 93.0154 37.428 93.0345 37.8925C93.0516 38.3105 92.9323 38.8038 92.6765 39.3726C93.0168 39.7308 93.1984 40.1886 93.2213 40.746C93.2385 41.164 93.1404 41.61 92.9273 42.0839C93.2676 42.4422 93.4502 42.9232 93.4749 43.5269C93.4978 44.0843 93.3543 44.5554 93.0444 44.9403C93.3459 45.4862 93.5034 45.9217 93.5167 46.2468C93.5281 46.5255 93.3614 46.9976 93.0165 47.663C93.2099 47.8412 93.3133 48.0928 93.3266 48.418C93.3437 48.836 93.2158 49.1203 92.9429 49.2711C93.4245 49.6701 93.6786 50.1947 93.7053 50.8449C93.7148 51.0771 93.6846 51.4738 93.6145 52.035L94.0297 51.9481C94.5406 51.9272 95.0842 52.1375 95.6606 52.5791C96.3363 52.0396 97.2315 51.747 98.3462 51.7013C98.7642 51.6842 99.2073 51.7125 99.6756 51.7864C99.9409 51.4498 100.325 51.1782 100.829 50.9715C101.332 50.7647 101.885 50.649 102.489 50.6242C103.464 50.5842 104.216 50.7627 104.744 51.1598C105.004 50.6839 105.476 50.2923 106.161 49.9851C106.847 49.6779 107.538 49.51 108.234 49.4814C108.745 49.4604 109.166 49.5129 109.497 49.6389C109.996 49.3393 110.455 49.1809 110.873 49.1638C111.616 49.1333 112.279 49.4085 112.861 49.9895C113.443 50.5704 113.75 51.2556 113.783 52.0452C113.823 53.0206 113.413 53.805 112.553 54.3985C112.383 54.7777 112.025 55.1181 111.479 55.4196C110.931 55.6747 110.332 55.8155 109.682 55.8422C109.031 55.8689 108.516 55.7737 108.135 55.5567C107.778 55.9435 107.304 56.2886 106.712 56.5921C106.117 56.8491 105.518 56.9899 104.915 57.0147C103.986 57.0528 103.255 56.8269 102.723 56.3369C101.968 57.2053 100.963 57.6652 99.7095 57.7167C99.4772 57.7262 99.0805 57.6959 98.5194 57.6259C97.6134 58.2214 96.7191 58.5372 95.8366 58.5734C95.14 58.6019 94.5286 58.4409 94.0024 58.0903C93.5239 58.9008 92.797 59.3261 91.8217 59.3661C90.9856 59.4004 90.2292 59.1057 89.5523 58.4822C88.9218 57.8567 88.6814 57.0989 88.831 56.2089C88.5409 55.9416 88.3147 55.5322 88.1526 54.9806C87.9904 54.4289 87.8978 53.8745 87.875 53.3171C87.8578 52.8991 87.8687 52.5963 87.9075 52.4086C87.279 51.8296 86.9352 50.8202 86.8761 49.3804C86.8513 48.7766 86.8981 48.2164 87.0165 47.6998C87.133 47.1367 87.2794 46.7353 87.4556 46.4954C87.2044 46.0405 87.0682 45.5576 87.0473 45.0467C87.0378 44.8145 87.0718 44.5107 87.1495 44.1353C86.7143 43.7344 86.4825 43.1857 86.4539 42.489C86.4272 41.8388 86.5688 41.3212 86.8787 40.9363C86.6274 40.4814 86.4942 40.0681 86.4789 39.6966C86.458 39.1857 86.6005 38.6913 86.9066 38.2136C86.5008 37.3928 86.2816 36.5876 86.2493 35.7981C86.2093 34.8227 86.4731 33.8814 87.0407 32.9742C86.7372 32.3819 86.4513 31.6492 86.1829 30.7763C85.9609 29.9015 85.8337 29.0693 85.8013 28.2797C85.7404 26.7934 86.0468 25.7574 86.7206 25.1715C86.4465 24.1592 86.3085 23.6298 86.3066 23.5834C85.9822 22.4801 85.8105 21.6963 85.7914 21.2318C85.7629 20.5352 85.8911 19.6925 86.1762 18.7038C85.9307 18.3882 85.723 17.8617 85.5532 17.1243C85.3834 16.3869 85.315 15.8547 85.3481 15.5277C84.7679 14.9932 84.4616 14.3312 84.4293 13.5416C84.4045 12.9378 84.5674 12.3729 84.918 11.8467C85.3132 11.2723 85.832 10.8788 86.4747 10.6663C86.7864 10.3279 87.2172 10.0543 87.7669 9.84571C88.3147 9.59063 88.8905 9.4507 89.4943 9.42594C90.2839 9.39356 90.9659 9.57494 91.5404 9.97009C92.3204 9.70548 93.1052 9.55698 93.8948 9.5246C95.0095 9.47888 95.9256 9.69718 96.6433 10.1795C97.0536 9.97658 97.5375 9.86369 98.0948 9.84084C98.6057 9.81988 99.0053 9.9198 99.2935 10.1406C99.5626 9.89694 100.231 9.75321 101.3 9.7094C102.693 9.65225 103.794 9.83971 104.602 10.2718C105.092 9.73993 105.709 9.45877 106.452 9.42829C106.917 9.40925 107.455 9.50345 108.069 9.71091Z" fill="#333B8B"/>
<path d="M158.849 49.0803C158.849 49.0803 159.25 49.2267 160.053 49.5194C160.903 49.8103 161.272 50.8884 161.163 52.7538C161.364 53.1178 161.474 53.532 161.493 53.9964C161.523 54.7395 161.246 55.3557 160.662 55.8449C160.077 56.3341 159.39 56.5949 158.6 56.6273C157.903 56.6559 157.291 56.4716 156.763 56.0746C156.28 55.6292 156.021 54.9885 155.986 54.1525C155.472 54.0805 154.921 53.7076 154.335 53.0338C153.794 52.3117 153.508 51.579 153.478 50.8359C153.47 50.6501 153.505 50.3695 153.583 49.9942C153.109 49.781 152.672 49.3337 152.272 48.6523C151.916 47.9225 151.652 47.1657 151.481 46.3818C151.309 45.598 151.24 45.0425 151.273 44.7155C150.657 44.4616 150.142 43.8081 149.727 42.7551C149.356 41.6538 149.201 40.7064 149.261 39.9131C148.942 40.0657 148.55 40.1516 148.086 40.1706C147.157 40.2087 146.286 39.9653 145.474 39.4404C144.895 40.0689 144.001 40.4079 142.794 40.4575C141.679 40.5032 140.878 40.2569 140.391 39.7186C139.808 40.2543 139.168 40.5364 138.471 40.5649C137.914 40.5878 137.468 40.4898 137.133 40.2709C136.818 40.5165 136.335 40.6526 135.685 40.6792C135.127 40.7021 134.566 40.6321 134.001 40.4691C133.436 40.3062 132.985 40.0689 132.646 39.7571C132.6 39.759 132.485 39.8102 132.304 39.9107C132.618 40.7817 132.79 41.5656 132.819 42.2623C132.862 43.3305 132.366 44.2813 131.331 45.1147C131.532 45.4786 131.643 45.916 131.664 46.4269C131.705 47.4487 131.397 48.4384 130.739 49.3958C130.08 50.3533 129.427 50.8918 128.781 51.0114C128.984 51.4218 129.097 51.9056 129.12 52.463C129.171 53.717 128.801 54.8952 128.009 55.9978C127.214 57.0538 126.214 57.6066 125.006 57.6562C124.681 57.6695 124.425 57.6568 124.237 57.6179C123.633 57.6427 123.161 57.476 122.821 57.1177C122.48 56.7595 122.298 56.2785 122.273 55.6747C122.256 55.2567 122.352 54.7643 122.561 54.1974C122.507 54.0135 122.473 53.7358 122.457 53.3643C122.419 52.4354 122.85 51.6035 123.751 50.8688C123.699 50.7313 123.667 50.5233 123.655 50.2446C123.627 49.5479 123.761 48.8446 124.057 48.1346C124.398 47.3762 124.843 46.8695 125.391 46.6144C125.34 46.5234 125.309 46.3154 125.295 45.9903C125.263 45.2007 125.412 44.2874 125.741 43.2504C126.069 42.1669 126.462 41.546 126.921 41.3876C126.744 39.3478 127.333 37.2534 128.687 35.1043C128.643 34.0361 128.765 33.0309 129.052 32.0886C129.337 31.0999 129.889 30.3795 130.708 29.9272C130.718 29.0428 130.891 28.1518 131.226 27.2541C131.562 26.3564 131.949 25.5961 132.389 24.9733C132.228 24.4681 132.14 24.0065 132.123 23.5885C132.096 22.9383 132.191 22.4226 132.408 22.0415C132.67 21.6121 132.961 21.3443 133.282 21.2381C133.228 21.0542 133.194 20.7765 133.178 20.4049C133.136 19.3831 133.475 18.5551 134.193 17.9208L134.106 17.5057C134.078 16.809 134.331 16.1706 134.865 15.5904C134.811 15.4065 134.777 15.152 134.764 14.8269C134.73 13.9909 134.904 13.1463 135.288 12.2931C135.672 11.44 136.113 10.8636 136.613 10.564C137.401 9.36857 138.26 8.75182 139.189 8.71372C139.607 8.69658 140.147 8.814 140.808 9.066C142.157 9.05721 143.175 10.0622 143.863 12.081C144.302 12.5748 144.629 13.1662 144.843 13.8552C145.055 14.4979 145.15 15.0988 145.126 15.658C145.556 15.9196 145.873 16.2787 146.078 16.7356C146.329 17.1905 146.442 17.6744 146.416 18.1872C146.898 18.5861 147.319 19.2201 147.681 20.0893C148.088 20.9565 148.308 21.7849 148.341 22.5744C148.356 22.946 148.343 23.2024 148.303 23.3436C148.641 23.6554 148.939 24.1084 149.196 24.7027C149.499 25.2951 149.661 25.8467 149.682 26.3576C149.694 26.6362 149.679 26.8462 149.638 26.9874C150.259 27.3807 150.774 28.0109 151.181 28.8781C151.636 29.7434 151.95 30.6145 152.126 31.4912C152.346 32.3196 152.416 32.8982 152.337 33.2272C152.435 33.3627 152.705 33.7006 153.146 34.2408C153.585 34.7345 153.932 35.2553 154.187 35.8031C154.44 36.3045 154.576 36.7874 154.595 37.2518C154.612 37.6698 154.578 37.9736 154.493 38.1632C154.688 38.3878 154.909 38.6579 155.154 38.9735C155.398 39.2427 155.594 39.4905 155.743 39.717C155.892 39.9435 155.973 40.2193 155.987 40.5444C156 40.8696 155.986 41.1027 155.945 41.244C156.332 41.6003 156.677 42.0746 156.981 42.667C157.284 43.2593 157.447 43.8342 157.47 44.3915C157.489 44.856 157.411 45.2081 157.234 45.448C157.761 45.7986 158.177 46.3165 158.484 47.0018C158.792 47.687 158.913 48.3799 158.849 49.0803ZM145.41 34.4882C145.491 34.2058 145.694 34.0346 146.017 33.9749C146.338 33.8686 146.618 33.8804 146.856 34.0102C146.752 33.7354 146.697 33.5283 146.691 33.3889C146.676 33.0174 146.757 32.7349 146.935 32.5415C146.504 32.2335 146.138 31.8298 145.839 31.3304C145.586 30.829 145.472 30.3219 145.497 29.8091C145.168 29.7295 144.857 29.5097 144.563 29.1496C144.314 28.7411 144.179 28.3046 144.16 27.8402C144.155 27.7008 144.191 27.4435 144.268 27.0681C143.268 26.5043 142.743 25.6187 142.694 24.4111C142.675 23.9466 142.723 23.4097 142.837 22.8002C142.789 22.7556 142.669 22.6675 142.477 22.5358C142.284 22.3576 142.203 22.0818 142.234 21.7083C141.294 21.4678 140.822 20.7427 140.819 19.5333C140.44 19.3627 140.124 19.0268 139.87 18.5254C140.007 19.5898 139.623 20.443 138.719 21.0849C138.787 21.5939 138.718 22.1782 138.512 22.838C138.306 23.4977 138.048 23.9968 137.736 24.3353C137.79 24.5192 137.826 24.8201 137.843 25.2381C137.887 26.3063 137.503 27.741 136.693 29.5421C136.482 30.0625 136.315 30.5346 136.193 30.9583C136.026 31.4304 135.837 31.9034 135.623 32.3774C135.457 32.8494 135.215 33.2083 134.9 33.4538C134.919 33.9183 134.843 34.3401 134.673 34.7193L135.227 34.6267C135.692 34.6077 136.045 34.7095 136.286 34.9322C136.416 34.6943 136.69 34.5667 137.108 34.5496C137.387 34.5382 137.599 34.5993 137.744 34.7329C138.284 34.292 138.972 34.0544 139.808 34.0202C140.412 33.9954 140.973 34.0654 141.491 34.2302C142.01 34.3951 142.438 34.6334 142.777 34.9452C143.22 34.4152 143.698 34.1398 144.209 34.1188C144.534 34.1055 144.934 34.2286 145.41 34.4882Z" fill="#5A308C"/>
<path d="M191.259 6.57815C191.892 6.13347 192.627 5.89399 193.463 5.85971C194.113 5.83304 194.653 5.95047 195.082 6.21199C196.004 5.98811 196.78 6.18891 197.41 6.81438C198.085 7.39149 198.44 8.09806 198.474 8.93407C198.503 9.63074 198.271 10.2218 197.779 10.7072C197.334 11.1907 196.646 11.4515 195.718 11.4896C195.114 11.5143 194.647 11.4869 194.319 11.4074C193.825 11.8463 193.113 12.0849 192.185 12.123C191.163 12.1649 190.225 11.994 189.372 11.6103C189.101 11.8075 188.597 11.991 187.859 12.1608C187.122 12.3306 186.405 12.4298 185.708 12.4584C185.244 12.4774 184.824 12.4481 184.449 12.3705C184.845 12.959 185.062 13.7177 185.1 14.6466C185.14 15.622 184.959 16.304 184.556 16.6927C185.287 17.5001 185.68 18.5773 185.735 19.9242C185.772 20.8067 185.619 21.6271 185.278 22.3854C185.794 23.6204 186.077 24.8417 186.126 26.0492C186.159 26.8388 186.094 27.5393 185.933 28.1507C186.177 28.4198 186.381 28.8534 186.545 29.4515C186.755 30.0477 186.873 30.6477 186.898 31.2514C186.926 31.9481 186.812 32.5576 186.554 33.0799C187.277 33.7016 187.668 34.7091 187.725 36.1024C187.763 37.0313 187.677 37.7792 187.468 38.3461C187.913 38.9792 188.156 39.8066 188.198 40.8284C188.223 41.4322 188.128 41.9711 187.915 42.445C188.165 42.8535 188.304 43.4293 188.335 44.1724C188.364 44.8691 188.293 45.407 188.122 45.7862C188.605 46.2316 188.868 46.9652 188.91 47.987C188.927 48.405 188.874 48.8027 188.75 49.1799C189.382 49.8518 189.666 50.538 189.602 51.2385C189.857 51.7863 189.992 52.246 190.007 52.6176C190.04 53.4072 189.764 54.0698 189.182 54.6054C188.599 55.1411 187.912 55.4251 187.123 55.4575C186.519 55.4822 185.978 55.3416 185.501 55.0355C185.067 54.6811 184.766 54.1352 184.596 53.3978C184.258 53.086 183.983 52.632 183.773 52.0359C183.562 51.4397 183.445 50.863 183.422 50.3056C183.409 49.9805 183.441 49.6303 183.519 49.2549C182.987 48.765 182.694 47.8698 182.641 46.5693C182.616 45.9655 182.646 45.5456 182.729 45.3096C182.284 44.6765 182.052 44.1277 182.033 43.6633C182.007 43.013 182.238 42.422 182.728 41.8901C182.059 41.4524 181.704 40.7458 181.664 39.7705C181.632 38.9809 181.793 38.3695 182.147 37.9362C181.482 37.5913 181.117 36.6293 181.052 35.0502C181.016 34.1678 181.08 33.4673 181.245 32.9488C181.001 32.6796 180.775 32.2702 180.567 31.7205C180.403 31.1224 180.308 30.5215 180.283 29.9177C180.257 29.2674 180.33 28.776 180.502 28.4432C180.05 27.6244 179.8 26.6344 179.752 25.4732C179.724 24.7766 179.775 23.7742 179.908 22.4661C179.547 21.597 179.345 20.6515 179.303 19.6297C179.265 18.7008 179.373 17.9288 179.627 17.3136C179.047 16.7791 178.726 15.7687 178.665 14.2825C178.637 13.5858 178.68 12.956 178.797 12.3929C178.297 12.6925 177.792 12.8528 177.281 12.8738C176.771 12.8947 176.278 12.7986 175.804 12.5854C175.487 12.7845 175.049 12.8955 174.492 12.9184C173.563 12.9565 172.904 12.7741 172.515 12.3714C172.293 12.6131 171.952 12.8132 171.493 12.9716C171.035 13.13 170.55 13.2196 170.039 13.2406C168.878 13.2882 168.077 13.0419 167.636 12.5017C167.359 12.5596 166.989 12.5981 166.524 12.6171C165.363 12.6647 164.495 12.491 163.921 12.0958C163.346 11.7007 163.045 11.1548 163.016 10.4581C162.984 9.66852 163.325 8.91017 164.039 8.18301C164.752 7.40942 165.619 7.00167 166.641 6.95976C167.105 6.94071 167.644 7.03492 168.258 7.24238C168.612 6.80913 169.323 6.57061 170.392 6.5268C171.274 6.4906 171.954 6.62554 172.432 6.9316C172.79 6.59125 173.434 6.40203 174.363 6.36393C174.966 6.33917 175.55 6.38502 176.113 6.5015C176.722 6.61607 177.171 6.78375 177.459 7.00455C177.765 6.52677 178.615 6.2593 180.009 6.20216C181.263 6.15073 182.061 6.32735 182.403 6.73202C182.759 6.34522 183.402 6.13277 184.331 6.09467C185.213 6.05848 185.779 6.24462 186.029 6.6531C186.569 6.21224 187.373 5.9699 188.441 5.92609C189.649 5.87657 190.588 6.09392 191.259 6.57815Z" fill="#272425"/>
<path d="M213.438 15.2988C213.708 16.2182 213.856 16.9798 213.88 17.5836C213.89 17.8158 213.867 18.3983 213.812 19.331C214.064 19.7859 214.209 20.501 214.249 21.4764C214.284 22.3124 214.194 22.9674 213.981 23.4413C214.232 23.8963 214.367 24.3327 214.384 24.7507C214.408 25.3545 214.223 25.9437 213.828 26.5181C214.186 27.2944 214.381 28.1005 214.416 28.9365C214.442 29.5867 214.356 30.3114 214.156 31.1105C214.454 31.5635 214.617 32.1383 214.645 32.835C214.674 33.5317 214.543 34.3047 214.252 35.1541C214.645 35.6497 214.852 36.1762 214.875 36.7335C214.898 37.2909 214.734 37.8326 214.384 38.3588C214.583 38.6762 214.691 39.044 214.708 39.462C214.725 39.88 214.627 40.326 214.414 40.8C214.812 41.435 215.018 41.915 215.031 42.2401C215.043 42.5188 214.896 42.9203 214.592 43.4445C214.805 44.0871 214.917 44.571 214.931 44.8961C214.959 45.5927 214.729 46.207 214.239 46.7389C214.836 47.6913 215.163 48.8643 215.22 50.2576C215.291 51.9761 214.852 53.1804 213.903 53.8707C213.452 54.2148 212.971 54.3974 212.46 54.4183C211.578 54.4545 210.818 54.0902 210.182 53.3254C209.591 52.5123 209.275 51.618 209.235 50.6427C209.216 50.1782 209.267 49.7341 209.389 49.3104C208.949 48.7702 208.707 47.9892 208.665 46.9674C208.623 45.9456 208.802 45.194 209.201 44.7124C209.098 44.4839 209.039 44.1607 209.022 43.7427C209.008 43.4176 209.021 43.1612 209.06 42.9735C208.812 42.6115 208.676 42.1286 208.651 41.5248C208.621 40.7817 208.781 40.1471 209.132 39.6209C208.745 39.2646 208.539 38.7845 208.514 38.1808C208.497 37.7628 208.595 37.3168 208.808 36.8428C208.607 36.4789 208.49 35.8789 208.455 35.0429C208.413 34.0211 208.619 33.3613 209.072 33.0636C208.573 32.2466 208.308 31.4434 208.275 30.6538C208.258 30.2358 208.358 29.8363 208.575 29.4552C208.223 28.8183 208.03 28.0818 207.996 27.2458C207.956 26.2705 208.155 25.4482 208.593 24.7789C208.39 24.3685 208.281 23.9775 208.265 23.606C208.252 23.2809 208.376 22.9036 208.638 22.4741C208.245 21.9785 208.037 21.4288 208.012 20.825C207.991 20.3141 208.116 19.96 208.387 19.7628C208.047 19.4046 207.861 18.8539 207.831 18.1108C207.808 17.5535 207.93 17.1298 208.197 16.8397C207.753 16.2066 207.506 15.2862 207.456 14.0787C207.412 13.0104 207.544 12.2606 207.852 11.8293C207.404 11.1033 207.16 10.2759 207.122 9.347C207.088 8.51099 207.249 7.89958 207.605 7.51279C207.619 6.72132 207.896 6.08193 208.434 5.59462C208.97 5.06086 209.61 4.77875 210.353 4.74827C210.864 4.72732 211.334 4.8476 211.764 5.10913C212.667 5.58383 213.141 6.3553 213.185 7.42354C213.221 8.30599 213.024 9.17475 212.594 10.0298C213.241 11.0733 213.592 12.2452 213.645 13.5457C213.672 14.1959 213.603 14.7803 213.438 15.2988Z" fill="#CB2229"/>
<path d="M255.491 2.33877C256.288 2.49216 256.907 2.83896 257.348 3.37916C257.789 3.91935 258.024 4.56101 258.055 5.30413C258.102 6.46525 257.703 7.50514 256.857 8.42379C257.242 8.73366 257.45 9.28338 257.483 10.0729C257.515 10.8625 257.385 11.6587 257.092 12.4616C256.799 13.2645 256.471 13.7665 256.107 13.9675C256.596 14.5523 256.861 15.3323 256.901 16.3076C256.937 17.1901 256.786 18.0337 256.447 18.8385C256.152 19.595 255.73 20.0775 255.18 20.2862C255.478 20.7392 255.642 21.3373 255.672 22.0804C255.697 22.6842 255.606 23.2927 255.398 23.906C255.189 24.4729 254.881 24.9042 254.474 25.2C254.67 25.4246 254.78 25.8388 254.804 26.4426C254.835 27.1857 254.703 27.9355 254.408 28.692C254.112 29.402 253.668 29.9319 253.078 30.2818C253.468 30.731 253.676 31.2575 253.701 31.8613C253.727 32.5115 253.592 33.1684 253.293 33.832C253.039 34.4472 252.686 34.9037 252.233 35.2014C252.584 35.8383 252.778 36.598 252.815 37.4804C252.855 38.4558 252.753 39.3904 252.511 40.2843C252.268 41.1781 251.923 41.8204 251.473 42.211C251.585 42.6716 251.646 43.0181 251.656 43.2503C251.694 44.1792 251.332 45.0082 250.571 45.7372C250.641 46.2927 250.53 46.9951 250.239 47.8444C249.993 48.6454 249.693 49.2857 249.341 49.7654C249.468 50.5976 249.149 51.3318 248.384 51.968C247.666 52.6022 246.796 52.9403 245.774 52.9822C244.799 53.0222 243.95 52.7546 243.229 52.1794C242.506 51.5578 242.07 50.5754 241.922 49.2323C241.351 48.93 240.893 48.5301 240.547 48.0326C240.199 47.4886 240.012 46.9147 239.988 46.3109C239.972 45.9393 240.028 45.5881 240.154 45.2573C239.587 45.0479 239.13 44.6945 238.784 44.1969C238.483 43.651 238.366 43.0742 238.434 42.4666C237.755 41.7966 237.392 40.8811 237.345 39.7199C237.324 39.209 237.332 38.8365 237.368 38.6024C236.655 38.213 236.099 37.7008 235.7 37.0658C235.347 36.3824 235.155 35.6692 235.124 34.9261C235.107 34.5081 235.118 34.2052 235.157 34.0175C234.248 33.4035 233.767 32.4695 233.716 31.2155C233.699 30.7975 233.709 30.4714 233.746 30.2373C233.273 30.0705 232.862 29.6687 232.51 29.0318C232.202 28.3466 232.059 27.6779 232.079 27.0258C231.696 26.7623 231.325 26.2425 230.968 25.4663C230.608 24.6436 230.414 23.8839 230.386 23.1872C229.349 22.8576 228.803 22.0193 228.747 20.6724C228.734 20.3473 228.764 19.9506 228.838 19.4823C227.739 18.783 227.172 17.9922 227.136 17.1097C227.124 16.831 227.138 16.5978 227.177 16.4102C226.838 16.0984 226.543 15.6918 226.289 15.1904C226.034 14.6426 225.896 14.1133 225.875 13.6024C225.866 13.3701 225.902 13.1128 225.983 12.8303C225.556 12.6152 225.191 12.2347 224.89 11.6888C224.633 11.0946 224.492 10.4955 224.467 9.89176C224.437 9.14864 224.58 8.67752 224.898 8.47841C224.306 7.66526 223.997 6.93357 223.97 6.28334C223.94 5.54022 224.17 4.92595 224.662 4.44055C225.154 3.95515 225.772 3.69721 226.515 3.66673C227.351 3.63244 228.086 3.97448 228.72 4.69284C229.401 5.40929 229.794 6.48646 229.899 7.92435C230.472 8.27305 230.937 8.83552 231.295 9.61174C231.697 10.3396 231.913 11.0751 231.943 11.8182C231.957 12.1434 231.944 12.3998 231.905 12.5874C232.335 12.849 232.675 13.2072 232.926 13.6621C233.176 14.0706 233.31 14.5071 233.329 14.9715C233.35 15.4824 233.252 15.9284 233.035 16.3095C234.18 17.0069 234.775 17.9129 234.821 19.0276C234.831 19.2598 234.798 19.6101 234.725 20.0783C235.104 20.2489 235.42 20.5848 235.673 21.0862C235.973 21.5857 236.135 22.1373 236.16 22.7411C236.173 23.0662 236.16 23.3226 236.121 23.5103C237.075 24.076 237.583 25.1252 237.646 26.6578C238.163 26.7762 238.694 27.2429 239.239 28.058C239.782 28.8266 240.072 29.6521 240.108 30.5346L240.064 31.1645C240.544 31.517 240.94 32.1055 241.253 32.9301C241.564 33.7082 241.688 34.4475 241.623 35.148C242.055 35.456 242.352 35.909 242.516 36.5071C242.725 37.0568 242.893 37.7478 243.02 38.58C243.544 38.8841 243.934 39.3101 244.189 39.8579C244.489 40.3574 244.603 40.8877 244.533 41.4489C245.071 42.0781 245.355 42.7643 245.386 43.5075C245.612 43.3586 245.744 43.1671 245.781 42.933C245.548 40.6629 245.839 39.2552 246.654 38.7101C246.31 38.2589 246.124 37.6851 246.095 36.9884C246.07 36.3846 246.164 35.8225 246.375 35.3021C246.631 34.7333 246.917 34.3494 247.235 34.1502C247.131 33.8754 247.073 33.5986 247.061 33.32C247.038 32.7626 247.107 32.1782 247.268 31.5668C247.476 30.9535 247.738 30.5473 248.056 30.3482C247.901 29.9824 247.816 29.6137 247.801 29.2421C247.755 28.1274 248.093 27.2762 248.813 26.6883C248.569 26.4192 248.435 25.9827 248.41 25.379C248.382 24.6823 248.492 23.9567 248.74 23.2021C249.033 22.3992 249.357 21.8044 249.713 21.4176C249.453 20.7304 249.31 20.085 249.285 19.4812C249.232 18.1807 249.605 17.0721 250.405 16.1554C250.248 15.7431 250.159 15.2583 250.136 14.7009C250.098 13.772 250.249 12.9284 250.59 12.17C250.978 11.4098 251.497 11.0163 252.147 10.9896C251.412 10.0893 251.028 9.22114 250.993 8.38513C250.955 7.45623 251.318 6.65048 252.081 5.96786C252.025 5.73754 251.989 5.4366 251.974 5.06504C251.939 4.22903 252.122 3.57023 252.521 3.08864C252.964 2.55869 253.604 2.27658 254.44 2.24229C254.672 2.23276 255.022 2.26492 255.491 2.33877Z" fill="#FFF12D"/>
<path d="M289.517 2.26914C289.968 1.92498 290.565 1.73766 291.308 1.70718C292.377 1.66337 293.459 1.9679 294.556 2.62076C295.067 2.59981 295.493 2.79166 295.836 3.19633C296.178 3.601 296.362 4.10523 296.386 4.70902C296.419 5.49858 296.215 6.20478 295.775 6.82762C295.336 7.45045 294.698 7.77901 293.862 7.8133C293.258 7.83806 292.6 7.67895 291.888 7.33596C291.532 7.72276 291.052 7.92854 290.448 7.95331C289.798 7.97997 289.115 7.77537 288.399 7.33949C287.944 7.59076 287.252 7.73545 286.323 7.77355C284.976 7.82879 283.923 7.66265 283.163 7.27512C282.479 7.6288 281.766 7.82089 281.023 7.85136C280.419 7.87613 279.835 7.80705 279.27 7.64413C278.676 7.90111 278.1 8.04104 277.542 8.0639C276.799 8.09437 276.048 7.91585 275.287 7.52832C274.47 8.02706 273.739 8.33621 273.092 8.45577C273.45 9.232 273.648 10.0846 273.686 11.0135C273.733 12.1746 273.516 13.114 273.034 13.8316C273.627 14.6912 273.946 15.6551 273.99 16.7233C274.024 17.5593 273.849 18.4039 273.466 19.2571C273.903 19.7044 274.135 20.2764 274.164 20.9731C274.183 21.4375 274.043 22.0015 273.745 22.6651C274.153 22.4157 274.659 22.2786 275.263 22.2539C275.728 22.2348 276.055 22.2679 276.244 22.3532C276.74 21.9607 277.29 21.7521 277.893 21.7273C278.497 21.7025 279.112 21.9332 279.736 22.4193C280.288 22.2572 280.749 22.1684 281.121 22.1532C281.353 22.1437 281.75 22.1739 282.311 22.244C282.865 22.1282 283.257 22.0656 283.49 22.0561C284.279 22.0237 284.867 22.1856 285.254 22.542C285.616 22.2945 286.03 22.1612 286.494 22.1422C287.051 22.1193 287.404 22.2212 287.553 22.4477C287.966 22.2912 288.288 22.2082 288.52 22.1987C288.845 22.1853 289.29 22.2601 289.855 22.423C290.446 22.0732 291.02 21.8868 291.577 21.8639C292.366 21.8316 293.052 22.1058 293.634 22.6868C294.215 23.2212 294.519 23.8368 294.548 24.5335C294.572 25.1373 294.384 25.6567 293.983 26.0919C293.583 26.527 292.942 26.7859 292.061 26.8686C291.666 27.4431 290.981 27.7503 290.006 27.7903C289.123 27.8265 288.324 27.6266 287.608 27.1908C287.163 27.6743 286.499 27.9341 285.616 27.9703C284.827 28.0027 284.169 27.8436 283.643 27.493C283.283 27.7869 282.894 27.9424 282.476 27.9595C282.197 27.971 281.961 27.8876 281.768 27.7095C281.276 28.1949 280.589 28.4557 279.706 28.4918C279.056 28.5185 278.446 28.4039 277.878 28.1481C277.423 28.3994 277.033 28.5317 276.708 28.545C276.243 28.5641 275.772 28.4206 275.294 28.1145C274.977 28.3136 274.726 28.4402 274.542 28.4943C274.358 28.5483 274.103 28.5588 273.776 28.5257C274.228 29.3446 274.464 29.9862 274.483 30.4507C274.5 30.8687 274.381 31.3621 274.125 31.9308C274.465 32.2891 274.647 32.7469 274.67 33.3042C274.687 33.7222 274.589 34.1682 274.376 34.6422C274.716 35.0004 274.899 35.4814 274.923 36.0852C274.946 36.6425 274.803 37.1136 274.493 37.4985C274.794 38.0444 274.952 38.48 274.965 38.8051C274.977 39.0837 274.81 39.5558 274.465 40.2213C274.658 40.3994 274.762 40.6511 274.775 40.9762C274.792 41.3942 274.664 41.6786 274.391 41.8293C274.873 42.2283 275.127 42.7529 275.154 43.4031C275.163 43.6353 275.133 44.032 275.063 44.5932L275.478 44.5064C275.989 44.4854 276.533 44.6957 277.109 45.1373C277.785 44.5979 278.68 44.3053 279.795 44.2596C280.213 44.2424 280.656 44.2708 281.124 44.3446C281.389 44.0081 281.774 43.7364 282.277 43.5297C282.78 43.323 283.334 43.2072 283.937 43.1824C284.913 43.1424 285.665 43.321 286.193 43.718C286.452 43.2421 286.925 42.8506 287.61 42.5433C288.295 42.2361 288.986 42.0682 289.683 42.0396C290.194 42.0187 290.614 42.0712 290.945 42.1972C291.445 41.8976 291.904 41.7392 292.322 41.722C293.065 41.6916 293.727 41.9668 294.309 42.5477C294.891 43.1286 295.199 43.8139 295.231 44.6034C295.271 45.5788 294.861 46.3632 294.002 46.9568C293.831 47.3359 293.473 47.6763 292.927 47.9778C292.379 48.2329 291.78 48.3738 291.13 48.4004C290.48 48.4271 289.964 48.332 289.583 48.115C289.227 48.5018 288.752 48.8469 288.16 49.1503C287.566 49.4073 286.967 49.5482 286.363 49.5729C285.434 49.611 284.704 49.3851 284.172 48.8952C283.416 49.7636 282.412 50.2235 281.158 50.2749C280.926 50.2844 280.529 50.2542 279.968 50.1841C279.062 50.7796 278.167 51.0954 277.285 51.1316C276.588 51.1602 275.977 50.9991 275.451 50.6485C274.972 51.4591 274.245 51.8843 273.27 51.9243C272.434 51.9586 271.678 51.664 271.001 51.0404C270.37 50.4149 270.13 49.6572 270.279 48.7671C269.989 48.4999 269.763 48.0904 269.601 47.5388C269.439 46.9872 269.346 46.4327 269.323 45.8754C269.306 45.4573 269.317 45.1545 269.356 44.9668C268.727 44.3878 268.384 43.3784 268.324 41.9386C268.3 41.3348 268.347 40.7746 268.465 40.258C268.581 39.6949 268.728 39.2935 268.904 39.0537C268.653 38.5987 268.517 38.1158 268.496 37.6049C268.486 37.3727 268.52 37.0689 268.598 36.6935C268.163 36.2927 267.931 35.7439 267.902 35.0472C267.876 34.397 268.017 33.8794 268.327 33.4945C268.076 33.0396 267.943 32.6264 267.927 32.2548C267.906 31.7439 268.049 31.2496 268.355 30.7718C267.949 29.951 267.73 29.1459 267.698 28.3563C267.658 27.3809 267.921 26.4397 268.489 25.5324C268.186 24.9401 267.9 24.2074 267.631 23.3345C267.409 22.4597 267.282 21.6275 267.25 20.8379C267.189 19.3517 267.495 18.3156 268.169 17.7297C267.895 16.7174 267.757 16.1881 267.755 16.1416C267.431 15.0384 267.259 14.2545 267.24 13.7901C267.211 13.0934 267.34 12.2507 267.625 11.262C267.379 10.9465 267.171 10.42 267.002 9.68255C266.832 8.94515 266.763 8.41293 266.797 8.08591C266.216 7.55143 265.91 6.88941 265.878 6.09984C265.853 5.49606 266.016 4.9311 266.366 4.40496C266.762 3.83048 267.28 3.43702 267.923 3.22457C268.235 2.88612 268.666 2.61258 269.215 2.40394C269.763 2.14886 270.339 2.00893 270.943 1.98417C271.732 1.95179 272.414 2.13317 272.989 2.52832C273.769 2.26371 274.554 2.11521 275.343 2.08283C276.458 2.03711 277.374 2.25542 278.092 2.73774C278.502 2.53481 278.986 2.42192 279.543 2.39907C280.054 2.37811 280.454 2.47803 280.742 2.69883C281.011 2.45517 281.68 2.31144 282.748 2.26763C284.141 2.21048 285.242 2.39795 286.051 2.83001C286.541 2.29816 287.157 2.017 287.9 1.98652C288.365 1.96748 288.904 2.06168 289.517 2.26914Z" fill="#309F85"/>
</svg>
