<svg width="25" height="25" viewBox="0 0 25 25" fill="none" xmlns="http://www.w3.org/2000/svg">
<g clip-path="url(#clip0_37_2448)">
<path d="M24.0755 12.0375C24.0755 5.38923 18.686 -0.000244141 12.0377 -0.000244141C5.38947 -0.000244141 0 5.38923 0 12.0375C0 18.0458 4.402 23.0259 10.1568 23.929V15.5172H7.10038V12.0375H10.1568V9.38543C10.1568 6.36847 11.954 4.702 14.7037 4.702C16.0203 4.702 17.3983 4.93711 17.3983 4.93711V7.89952H15.8804C14.3851 7.89952 13.9186 8.82751 13.9186 9.78042V12.0375H17.2572L16.7235 15.5172H13.9186V23.929C19.6735 23.0259 24.0755 18.0458 24.0755 12.0375Z" fill="#1877F2"/>
<path d="M16.7237 15.5172L17.2574 12.0375H13.9188V9.78045C13.9188 8.82848 14.3853 7.89955 15.8806 7.89955H17.3985V4.93714C17.3985 4.93714 16.021 4.70203 14.7039 4.70203C11.9542 4.70203 10.157 6.3685 10.157 9.38546V12.0375H7.10059V15.5172H10.157V23.929C11.4034 24.124 12.6725 24.124 13.9188 23.929V15.5172H16.7237Z" fill="white"/>
</g>
<defs>
<clipPath id="clip0_37_2448">
<rect width="24.0755" height="24.0755" fill="white" transform="translate(0 -0.000244141)"/>
</clipPath>
</defs>
</svg>
