<svg width="26" height="25" viewBox="0 0 26 25" fill="none" xmlns="http://www.w3.org/2000/svg">
<g clip-path="url(#clip0_37_2451)">
<path d="M12.9996 2.16749C16.216 2.16749 16.5969 2.18159 17.8618 2.23802C19.0373 2.28975 19.6721 2.48724 20.0953 2.65182C20.6549 2.86812 21.0593 3.13145 21.4778 3.54995C21.901 3.97315 22.1596 4.37284 22.3759 4.9324C22.5405 5.35561 22.738 5.99511 22.7897 7.16597C22.8461 8.43557 22.8602 8.81645 22.8602 12.0281C22.8602 15.2444 22.8461 15.6253 22.7897 16.8902C22.738 18.0658 22.5405 18.7006 22.3759 19.1238C22.1596 19.6833 21.8963 20.0877 21.4778 20.5062C21.0546 20.9294 20.6549 21.188 20.0953 21.4044C19.6721 21.5689 19.0326 21.7664 17.8618 21.8181C16.5922 21.8746 16.2113 21.8887 12.9996 21.8887C9.78331 21.8887 9.40243 21.8746 8.13753 21.8181C6.96197 21.7664 6.32717 21.5689 5.90397 21.4044C5.3444 21.188 4.94001 20.9247 4.52151 20.5062C4.09831 20.083 3.83968 19.6833 3.62338 19.1238C3.4588 18.7006 3.26131 18.0611 3.20958 16.8902C3.15316 15.6206 3.13905 15.2397 3.13905 12.0281C3.13905 8.81175 3.15316 8.43087 3.20958 7.16597C3.26131 5.99041 3.4588 5.35561 3.62338 4.9324C3.83968 4.37284 4.10301 3.96845 4.52151 3.54995C4.94471 3.12674 5.3444 2.86812 5.90397 2.65182C6.32717 2.48724 6.96667 2.28975 8.13753 2.23802C9.40243 2.18159 9.78331 2.16749 12.9996 2.16749ZM12.9996 -0.000244141C9.73159 -0.000244141 9.32249 0.0138626 8.03878 0.0702894C6.75977 0.126716 5.88046 0.333615 5.11869 0.629856C4.32401 0.940204 3.65159 1.3493 2.98388 2.02172C2.31146 2.68944 1.90236 3.36186 1.59201 4.15183C1.29577 4.9183 1.08887 5.79291 1.03245 7.07192C0.976021 8.36034 0.961914 8.76943 0.961914 12.0375C0.961914 15.3055 0.976021 15.7146 1.03245 16.9984C1.08887 18.2774 1.29577 19.1567 1.59201 19.9184C1.90236 20.7131 2.31146 21.3855 2.98388 22.0533C3.65159 22.721 4.32401 23.1348 5.11399 23.4404C5.88046 23.7367 6.75507 23.9436 8.03408 24C9.31779 24.0564 9.72689 24.0705 12.9949 24.0705C16.263 24.0705 16.6721 24.0564 17.9558 24C19.2348 23.9436 20.1141 23.7367 20.8759 23.4404C21.6659 23.1348 22.3383 22.721 23.006 22.0533C23.6737 21.3855 24.0875 20.7131 24.3932 19.9231C24.6894 19.1567 24.8963 18.2821 24.9527 17.0031C25.0092 15.7193 25.0233 15.3102 25.0233 12.0422C25.0233 8.77414 25.0092 8.36504 24.9527 7.08133C24.8963 5.80232 24.6894 4.923 24.3932 4.16124C24.0969 3.36186 23.6878 2.68944 23.0154 2.02172C22.3477 1.354 21.6753 0.940204 20.8853 0.634558C20.1188 0.338317 19.2442 0.131419 17.9652 0.0749917C16.6768 0.0138626 16.2677 -0.000244141 12.9996 -0.000244141Z" fill="#EC3397"/>
<path d="M12.9999 5.854C9.58603 5.854 6.81641 8.62362 6.81641 12.0374C6.81641 15.4513 9.58603 18.2209 12.9999 18.2209C16.4137 18.2209 19.1833 15.4513 19.1833 12.0374C19.1833 8.62362 16.4137 5.854 12.9999 5.854ZM12.9999 16.0485C10.7851 16.0485 8.98884 14.2522 8.98884 12.0374C8.98884 9.8227 10.7851 8.02644 12.9999 8.02644C15.2146 8.02644 17.0109 9.8227 17.0109 12.0374C17.0109 14.2522 15.2146 16.0485 12.9999 16.0485Z" fill="#EC3397"/>
<path d="M20.8715 5.60961C20.8715 6.40899 20.2226 7.0532 19.428 7.0532C18.6286 7.0532 17.9844 6.40429 17.9844 5.60961C17.9844 4.81022 18.6333 4.16602 19.428 4.16602C20.2226 4.16602 20.8715 4.81493 20.8715 5.60961Z" fill="#EC3397"/>
</g>
<defs>
<clipPath id="clip0_37_2451">
<rect width="24.0755" height="24.0755" fill="white" transform="translate(0.961914 -0.000244141)"/>
</clipPath>
</defs>
</svg>
