<svg width="25" height="25" viewBox="0 0 25 25" fill="none" xmlns="http://www.w3.org/2000/svg">
<g clip-path="url(#clip0_37_2456)">
<path d="M23.223 -0.000244141H2.70204C2.23069 -0.000244141 1.77864 0.187 1.44535 0.520297C1.11205 0.853594 0.924805 1.30564 0.924805 1.77699V22.298C0.924805 22.7693 1.11205 23.2214 1.44535 23.5547C1.77864 23.888 2.23069 24.0752 2.70204 24.0752H23.223C23.6944 24.0752 24.1464 23.888 24.4797 23.5547C24.813 23.2214 25.0003 22.7693 25.0003 22.298V1.77699C25.0003 1.30564 24.813 0.853594 24.4797 0.520297C24.1464 0.187 23.6944 -0.000244141 23.223 -0.000244141ZM8.10063 20.509H4.48095V9.01134H8.10063V20.509ZM6.28829 7.41801C5.8777 7.4157 5.47699 7.29181 5.13674 7.06198C4.79649 6.83215 4.53195 6.50668 4.3765 6.12665C4.22105 5.74662 4.18166 5.32905 4.2633 4.92666C4.34494 4.52426 4.54395 4.15506 4.83522 3.86566C5.12648 3.57625 5.49695 3.37962 5.89987 3.30056C6.30278 3.22151 6.72008 3.26358 7.09911 3.42147C7.47814 3.57935 7.8019 3.84598 8.02954 4.1877C8.25718 4.52941 8.37849 4.9309 8.37817 5.3415C8.38204 5.6164 8.33053 5.88926 8.22671 6.14382C8.12288 6.39838 7.96887 6.62944 7.77385 6.82321C7.57882 7.01699 7.34679 7.16951 7.09156 7.2717C6.83634 7.37389 6.56315 7.42365 6.28829 7.41801ZM21.4425 20.5191H17.8244V14.2377C17.8244 12.3852 17.037 11.8135 16.0205 11.8135C14.9471 11.8135 13.8938 12.6227 13.8938 14.2845V20.5191H10.2741V9.0197H13.755V10.613H13.8018C14.1513 9.90581 15.3751 8.69702 17.2426 8.69702C19.2623 8.69702 21.4441 9.89578 21.4441 13.4068L21.4425 20.5191Z" fill="#0A66C2"/>
</g>
<defs>
<clipPath id="clip0_37_2456">
<rect width="24.0755" height="24.0755" fill="white" transform="translate(0.924805 -0.000244141)"/>
</clipPath>
</defs>
</svg>
