<svg width="40" height="40" viewBox="0 0 40 40" fill="none" xmlns="http://www.w3.org/2000/svg">
<path fill-rule="evenodd" clip-rule="evenodd" d="M26.181 21.1831C29.5304 18.5479 30.8417 14.0795 29.4473 10.0522C28.053 6.025 24.2595 3.32397 19.9977 3.32397C15.7359 3.32397 11.9424 6.025 10.5481 10.0522C9.15371 14.0795 10.465 18.5479 13.8144 21.1831C8.10953 23.4687 4.12539 28.7083 3.4477 34.8165C3.34645 35.7369 4.01056 36.5652 4.93103 36.6665C5.85151 36.7677 6.67978 36.1036 6.78103 35.1831C7.53875 28.4377 13.2432 23.3382 20.031 23.3382C26.8189 23.3382 32.5233 28.4377 33.281 35.1831C33.3749 36.0314 34.0943 36.6716 34.9477 36.6665H35.131C36.0404 36.5618 36.6952 35.7433 36.5977 34.8331C35.9167 28.707 31.9102 23.4569 26.181 21.1831ZM19.9948 19.9995C16.3129 19.9995 13.3281 17.0148 13.3281 13.3329C13.3281 9.65097 16.3129 6.6662 19.9948 6.6662C23.6767 6.6662 26.6615 9.65097 26.6615 13.3329C26.6615 15.101 25.9591 16.7967 24.7088 18.0469C23.4586 19.2972 21.7629 19.9995 19.9948 19.9995Z" fill="#272525"/>
</svg>
